<?xml version="1.0" encoding="UTF-8" standalone="no"?><!DOCTYPE svg PUBLIC "-//W3C//DTD SVG 1.1//EN" "http://www.w3.org/Graphics/SVG/1.1/DTD/svg11.dtd"><svg width="100%" height="100%" viewBox="0 0 192 192" version="1.1" xmlns="http://www.w3.org/2000/svg" xmlns:xlink="http://www.w3.org/1999/xlink" xml:space="preserve" xmlns:serif="http://www.serif.com/" style="fill-rule:evenodd;clip-rule:evenodd;stroke-linejoin:round;stroke-miterlimit:2;"><g><path d="M91.125,6.25c0.604,0.831 0.68,2.229 0.227,4.193c-0.982,4.307 -1.964,8.274 -2.947,11.9c-2.418,8.916 -7.631,25.425 -15.64,49.528c-1.587,4.836 -4.911,15.187 -9.974,31.054c0,0.076 -0.264,1.398 -0.793,3.967c2.418,-2.645 3.702,-4.005 3.853,-4.08c5.062,-5.138 8.802,-8.878 11.22,-11.22c2.04,-1.964 4.458,-2.796 7.254,-2.493c1.436,0.151 2.437,0.529 3.003,1.133c0.567,0.604 0.85,1.624 0.85,3.06c0,1.813 -0.189,3.513 -0.567,5.1c-0.529,2.191 -1.776,7.102 -3.74,14.734c-1.662,6.573 -2.493,12.165 -2.493,16.774c0,1.587 0.038,2.833 0.113,3.74c0.151,1.964 0.472,3.211 0.963,3.74c0.491,0.529 1.757,1.058 3.797,1.587c-0.68,1.209 -2.116,1.851 -4.307,1.927c-2.116,0.076 -3.778,-0.642 -4.987,-2.153c-0.907,-1.133 -1.511,-2.229 -1.813,-3.287c-0.529,-2.116 -0.869,-4.118 -1.02,-6.007c-0.378,-7.027 0.491,-14.016 2.607,-20.967c0.151,-0.756 1.247,-4.685 3.287,-11.787c-1.738,1.284 -2.607,1.964 -2.607,2.04c-3.551,4.08 -7.102,8.236 -10.654,12.467c-0.982,1.209 -2.38,2.909 -4.193,5.1c-1.813,2.191 -3.098,3.74 -3.853,4.647c-1.738,2.116 -3.967,2.871 -6.687,2.267c-1.662,-0.378 -2.304,-1.398 -1.927,-3.06c0.227,-1.209 0.642,-2.72 1.247,-4.533c1.284,-3.778 4.873,-14.394 10.767,-31.847c5.893,-17.454 10.427,-30.865 13.6,-40.234c0,-0.076 3.325,-10.238 9.974,-30.487c0.831,-2.645 1.436,-4.42 1.813,-5.327c0.604,-1.587 1.813,-2.078 3.627,-1.473Z" style="fill-rule:nonzero;"/><path d="M138.721,102.586c1.662,0.302 2.758,1.02 3.287,2.153c-0.529,1.284 -1.662,1.776 -3.4,1.473c-1.587,-0.227 -3.192,-0.378 -4.817,-0.453c-1.624,-0.076 -3.381,0 -5.27,0.227c-1.889,0.227 -3.419,0.434 -4.59,0.623c-1.171,0.189 -2.909,0.51 -5.213,0.963c-2.304,0.453 -3.872,0.756 -4.703,0.907c0,0 -0.567,0.264 -1.7,0.793c-0.378,0.756 -0.926,1.889 -1.643,3.4c-0.718,1.511 -1.152,2.418 -1.303,2.72c0.453,1.058 0.68,1.624 0.68,1.7c3.702,4.382 5.1,10.049 4.193,17c-0.453,3.325 -1.096,6.385 -1.927,9.18c-3.929,12.845 -9.482,24.443 -16.66,34.794c-0.907,1.36 -2.304,3.136 -4.193,5.327c-1.209,1.436 -2.871,2.267 -4.987,2.493c-4.307,0.604 -6.611,-1.247 -6.913,-5.553c-0.302,-3.551 0.227,-8.16 1.587,-13.827c2.267,-9.067 6.045,-19.758 11.334,-32.074c0.756,-1.889 1.927,-4.552 3.513,-7.99c1.587,-3.438 2.493,-5.346 2.72,-5.723c0,-0.076 0.529,-1.36 1.587,-3.853c-2.569,-2.04 -3.929,-3.136 -4.08,-3.287c-0.907,-0.756 -1.341,-1.587 -1.303,-2.493c0.038,-0.907 0.548,-1.7 1.53,-2.38c2.191,-1.436 4.005,-2.304 5.44,-2.607c1.738,-0.302 3.117,-0.944 4.137,-1.927c1.02,-0.982 1.983,-2.38 2.89,-4.193c4.382,-8.538 10.616,-20.249 18.7,-35.134c0.831,-1.511 2.304,-3.4 4.42,-5.667c0.151,-0.227 0.359,-0.378 0.623,-0.453c0.264,-0.076 0.68,-0.17 1.247,-0.283c0.567,-0.113 1.001,-0.208 1.303,-0.283c-2.267,5.969 -5.516,13.6 -9.747,22.894c-0.604,1.284 -2.116,4.515 -4.533,9.69c-2.418,5.176 -4.269,9.275 -5.553,12.297c7.254,-0.604 11.069,-0.907 11.447,-0.907c4.231,-0.453 8.198,-0.302 11.9,0.453Zm-30.147,27.767c0.076,-2.645 -0.718,-5.213 -2.38,-7.707c-1.889,4.005 -2.909,6.12 -3.06,6.347c-7.027,16.018 -11.9,29.09 -14.62,39.214c-0.453,1.662 -1.058,4.873 -1.813,9.634c-0.227,1.133 0.038,1.813 0.793,2.04c0.604,-0.302 0.907,-0.491 0.907,-0.567c1.36,-1.587 2.304,-2.796 2.833,-3.627c7.254,-10.351 12.656,-22.403 16.207,-36.154c0.604,-2.116 0.982,-5.176 1.133,-9.18Z" style="fill-rule:nonzero;"/></g></svg>